<svg width="16" height="16" viewBox="0 0 16 16" fill="none" xmlns="http://www.w3.org/2000/svg">
<g clip-path="url(#clip0_1_51)">
<path d="M11.2917 5.15682C11.6338 4.91202 11.948 4.63554 12.2002 4.33186C13.5856 2.66418 13.072 1.2373 12.211 0.522259C11.7957 0.177459 10.3053 -0.785101 8.56368 1.31138C8.36752 1.5477 8.17536 1.8453 8 2.17602C7.82464 1.8453 7.63248 1.5477 7.43616 1.31122C5.69456 -0.785421 4.20416 0.177299 3.7888 0.522259C2.928 1.2373 2.4144 2.66402 3.79968 4.33186C4.052 4.63554 4.36624 4.91202 4.70832 5.15682H0V8.96002H0.8H7.36V5.15682H8.64V8.96002H15.2H16V5.15682H11.2917ZM5.0304 3.30946C4.17584 2.28066 4.65392 1.88338 4.81104 1.75298C4.97248 1.6189 5.35072 1.30498 6.20528 2.33362C6.76352 3.00578 7.07056 4.00498 7.168 4.61922C6.54832 4.42306 5.56624 3.95458 5.0304 3.30946ZM10.9694 3.30946C10.4338 3.95442 9.45168 4.42306 8.832 4.61922C8.92944 4.00498 9.23648 3.00562 9.79472 2.33362C10.2755 1.75506 10.6053 1.60114 10.8309 1.60114C11.0064 1.60114 11.1184 1.69426 11.189 1.75298C11.3459 1.88354 11.824 2.28066 10.9694 3.30946Z" fill="white"/>
<path d="M0.800049 10.24H7.36005V16H0.800049V10.24Z" fill="white"/>
<path d="M8.64001 10.24H15.2V16H8.64001V10.24Z" fill="white"/>
</g>
<defs>
<clipPath id="clip0_1_51">
<rect width="16" height="16" fill="white"/>
</clipPath>
</defs>
</svg>
